<?xml version="1.0" encoding="UTF-8" standalone="no"?>
<!-- Created with Inkscape (http://www.inkscape.org/) -->

<svg
   version="1.1"
   id="svg1"
   width="1536"
   height="1024"
   viewBox="0 0 1536 1024"
   sodipodi:docname="fruitBasketasinkscape.svg"
   inkscape:version="1.4.2 (f4327f4, 2025-05-13)"
   xmlns:inkscape="http://www.inkscape.org/namespaces/inkscape"
   xmlns:sodipodi="http://sodipodi.sourceforge.net/DTD/sodipodi-0.dtd"
   xmlns:xlink="http://www.w3.org/1999/xlink"
   xmlns="http://www.w3.org/2000/svg"
   xmlns:svg="http://www.w3.org/2000/svg">
  <defs
     id="defs1" />
  <sodipodi:namedview
     id="namedview1"
     pagecolor="#ffffff"
     bordercolor="#000000"
     borderopacity="0.25"
     inkscape:showpageshadow="2"
     inkscape:pageopacity="0.0"
     inkscape:pagecheckerboard="0"
     inkscape:deskcolor="#d1d1d1"
     inkscape:zoom="0.5"
     inkscape:cx="534"
     inkscape:cy="419"
     inkscape:window-width="1920"
     inkscape:window-height="974"
     inkscape:window-x="-11"
     inkscape:window-y="-11"
     inkscape:window-maximized="1"
     inkscape:current-layer="g1" />
  <g
     inkscape:groupmode="layer"
     inkscape:label="Image"
     id="g1">
    <image
       width="1536"
       height="1024"
       preserveAspectRatio="none"
       xlink:href="fruitBasket.png"
       id="image1" />
    <path
       style="fill:none;stroke:none"
       d="m 206.87924,97.036216 11.82167,-12.806811 c 17.69241,2.934496 34.92425,7.659744 52.21238,12.314241 l 17.55836,-4.343489 6.66206,16.135283 -3.35834,23.99164 -2.14443,15.44381 -17.36308,11.82167 -14.53081,25.49047 2.09343,22.65821 16.50108,33.9873 c 6.08266,21.03581 9.11579,42.56375 12.31424,64.15719 1.56013,27.52464 5.57891,54.74995 9.32427,82.03264 -8.60636,15.04491 -8.69749,31.72881 -9.45947,48.6027 -1.32339,13.29018 -0.11056,25.73707 2.53573,38.63572 l 8.32056,33.6812 c 2.67344,12.09179 7.89068,30.28154 10.08008,34.60451 l 1.88288,11.40245 c -17.37494,11.15972 -33.34749,22.95769 -49.70354,35.52307 -11.55194,10.70789 -20.41985,23.43135 -28.91421,36.4996 l -10.59025,23.76648 -33.34454,-4.01333 C 168.39523,643.60561 151.6343,633.90112 133.73265,624.45514 123.59509,616.39289 114.51364,607.37056 105.65618,597.97952 94.592718,583.0523 84.752943,567.31621 74.74744,551.67798 60.274124,527.63245 54.709473,505.5068 47.368708,478.91157 l -3.657143,-35.52654 -0.696599,-44.05986 3.134694,-41.62177 13.235374,-60.42993 21.246259,-49.4585 18.459864,-28.0381 C 110.94262,208.28906 123.96217,198.6542 137.57823,189.47483 l 33.08844,-33.43673 12.88707,-27.86395 c 4.14053,-12.41524 14.95116,-21.36525 23.3255,-31.137934 z"
       id="Banana"
       sodipodi:nodetypes="cccccccccccccccccccccccccccccccccccc" />
    <path
       style="fill:none;stroke:none"
       d="m 537.76401,517.71338 c 20.3967,-6.88603 62.93593,-14.47186 63.76743,-15.18593 12.009,-10.31304 6.69052,-73.53105 7.52584,-75.95224 7.22531,-20.94262 -9.30251,-39.37478 -16.51402,-61.5029 l -22.15837,-32.10049 c -16.75688,-14.64888 -35.15052,-17.69693 -52.74686,-28.14854 -25.10602,-7.5375 -47.8252,-11.92822 -69.2571,-9.36187 l -1.7263,-29.72044 -17.25653,0.63537 1.62641,33.25365 c -41.3434,-5.92415 -63.48463,8.36452 -88.02432,20.12849 -1.81982,0.8724 -26.47433,21.12555 -45.344,66.94269 -6.51374,15.81595 -8.48084,35.09925 -9.14559,49.8199 -2.6669,24.72615 5.00302,48.62318 10.85629,72.31692 5.86834,27.40195 8.8915,17.90078 13.51623,44.79886 11.60895,-4.12851 24.70824,-8.37735 37.38542,-7.9167 16.05435,0.58336 32.3901,-1.31993 51.66266,6.70898 13.93714,5.80618 34.61812,19.97834 43.16851,24.13424 1.68425,0.81863 31.97807,-38.36202 92.6643,-58.84999 z"
       id="Apple"
       sodipodi:nodetypes="ssscccccccsscccssss" />
    <path
       style="fill:none;stroke:none"
       d="m 638.2176,382.81719 c 10.33898,-13.75483 28.98934,-30.40075 28.56252,-31.64403 -2.76779,-8.0623 -6.38097,-31.18145 -5.39319,-33.61118 1.61934,-3.98325 10.93381,-20.87265 13.64379,-27.85692 9.70359,-30.93861 -11.01614,-48.25079 -28.85837,-67.75212 4.39373,-4.05571 19.56505,-18.50714 20.22384,-21.00299 4.88793,-17.1385 4.95648,-32.16142 -0.59079,-49.10528 -2.99922,-5.58225 -15.9956,-18.94706 -18.73375,-18.432 -18.0613,3.3974 -34.52648,-17.44851 -46.21669,-22.55435 4.39251,-60.565317 -44.87475,-63.041686 -50.81743,-59.006751 -7.5621,5.134468 -29.03306,18.003923 -30.45681,26.078658 -0.18169,1.030424 -28.91404,-36.401819 -36.7369,-35.081004 -18.61221,1.699021 -30.79465,5.020452 -43.96136,18.923363 -6.09965,6.4092 -7.20447,29.426499 -8.33785,28.051372 -12.56366,-15.243491 -38.8996,-13.638263 -43.77863,-9.971195 -43.06594,33.574067 -15.33573,66.007597 -20.9812,67.639937 -7.20648,2.08366 -29.87193,8.78661 -33.88761,15.49894 -8.60781,12.37967 -12.22298,22.31313 -11.76338,37.24351 6.99068,40.85764 25.95552,29.03847 30.33058,39.10442 0.65873,1.51556 -20.17479,11.21792 -21.14861,18.34672 -5.95041,43.55993 11.57508,63.87543 13.68443,62.07219 23.36983,-19.97838 52.55141,-24.95229 82.77483,-23.583 l 2.10093,-31.33622 18.50111,-1.67699 6.69286,29.22789 c 22.69351,-4.167 43.83056,4.1176 65.29295,9.79951 27.99425,12.72405 44.5951,20.06315 54.40851,29.40538 7.34205,6.98953 17.51255,16.85328 23.16634,29.38768 23.87971,51.41711 17.155,26.71103 21.64807,53.43357 6.82768,-18.92418 9.27298,-16.48748 20.63181,-31.59911 z"
       id="Grapes"
       sodipodi:nodetypes="ssssssssssssssssssssscccccsccs" />
    <path
       style="fill:none;stroke:none"
       d="m 606.16882,503.01559 c 8.30534,-11.62084 5.54408,-65.67578 9.72249,-74.24373 8.0122,-16.42923 13.67857,-33.18166 27.11118,-45.37694 11.31666,-10.27423 29.91778,-30.40346 34.40685,-34.25053 23.11209,-19.80676 57.2087,-27.37005 91.86845,-26.12217 7.24898,0.26099 1.11994,-23.86746 7.73909,-22.03221 5.33064,1.478 11.18308,4.81664 17.12101,9.14922 2.73254,1.99378 -5.41348,13.33454 -2.1457,14.81244 26.94776,12.18746 42.79697,23.51231 47.10305,28.56784 23.54572,27.6437 52.13212,72.91383 54.0795,90.54676 l 8.98031,81.31369 -39.94054,11.89209 c -20.26773,13.61439 -34.71882,32.21448 -48.65128,51.2591 -9.12557,12.47397 -7.31632,-41.96506 -25.61992,-52.07259 l -15.88326,-8.77097 -93.26107,-20.27726 c -14.40043,-3.13101 -78.64137,4.01615 -72.63016,-4.39474 z"
       id="Guava"
       sodipodi:nodetypes="ssssssssssccsscss" />
    <path
       style="fill:none;stroke:none"
       d="m 869.03505,141.29995 c 3.81977,-13.7472 -62.75633,27.50516 -56.90934,28.51086 6.73797,1.15894 -27.40895,44.3383 -48.06319,66.16424 -8.81556,9.31567 -71.86026,100.71773 -66.15108,99.50127 26.37112,-5.61892 35.92999,-16.97659 71.36635,-12.4541 7.19532,0.91829 1.11994,-23.86746 7.73909,-22.03221 5.33064,1.478 11.18308,4.81664 17.12101,9.14922 2.73254,1.99378 -5.41348,13.33454 -2.1457,14.81244 26.94776,12.18746 42.90747,23.42024 47.10305,28.56784 70.8077,86.87466 49.35723,106.74783 54.0795,90.54676 l 13.86176,-47.55666 c 22.00784,-25.40629 38.00006,-54.98477 72.33287,-65.23486 -2.35447,-15.97781 -4.19444,-34.80892 -14.48111,-55.15657 L 936.0954,219.16414 c 1.59267,3.1504 -3.38619,-30.15805 -14.07275,-50.22127 -10.58222,-19.86733 -26.86557,-26.47172 -26.84436,-27.35442 l 1.11473,-46.397566 -21.01556,1.68928 c -2.54548,0.204612 -9.08989,54.667756 -6.24241,44.419786 z"
       id="Pear"
       sodipodi:nodetypes="ssssssssssccsssscss" />
    <path
       style="fill:none;stroke:none"
       d="m 1122.6237,352.24527 c 6.1217,3.34462 32.3725,52.77047 33.718,58.94003 0.7208,3.30488 8.8709,83.74189 6.1528,86.08165 l -118.0795,101.64269 -25.0874,-40.5874 c -6.3369,-10.25209 -41.87809,-26.19282 -58.6568,-25.83037 -10.10332,0.21825 -5.20378,-41.64999 -14.27505,-40.90932 -6.50723,0.53131 -12.66907,1.27711 -18.37182,2.27422 -11.77415,2.05866 0.2913,23.26548 -7.895,26.69442 l -16.11033,6.74804 -10.84386,-83.23296 13.86176,-47.55666 c 22.00784,-25.40629 38.00006,-54.98477 72.33287,-65.23486 l 41.65563,-13.17608 42.9645,2.11154 z"
       id="Orange"
       sodipodi:nodetypes="ssscsssssccccscs" />
    <path
       style="opacity:1;fill:none;fill-opacity:1;stroke:none;stroke-opacity:1"
       d="m 242.12005,617.25969 11.22734,-13.66807 18.30545,-17.8173 27.45817,-20.62414 28.19039,-14.15621 25.50559,-3.41702 29.16668,1.46444 30.87519,11.34937 32.58369,19.40378 -19.03766,17.08508 -5.85774,6.95607 -21.23432,49.30267 -10.12902,36.85497 -2.31869,16.59694 12.32567,46.49584 7.56625,11.59345 -21.8445,13.7901 -15.74268,2.92887 -12.93585,-6.10181 -4.27127,-19.76989 -5.73571,8.78662 -0.85425,10.73919 -8.66458,0.12204 -7.68829,-13.17992 -1.58647,12.81381 -7.81033,2.19666 -16.96305,-17.57323 3.90517,23.1869 -17.81731,-0.24408 -28.06835,-9.88494 -19.03766,-11.34938 -22.94283,-27.33613 -7.56625,-29.77686 13.91214,-55.03838 z"
       id="Mango" />
    <path
       style="fill:none;stroke:none"
       d="m 1122.6237,352.24527 c 6.1217,3.34462 32.3725,52.77047 33.718,58.94003 0.7208,3.30488 48.2443,-51.10232 51.025,-53.36736 l 8.253,-54.37453 34.282,-8.14134 14.5194,60.46234 c 2.3597,9.8263 29.5504,37.06555 36.8103,31.57655 l 47.2106,-35.69457 c 2.7575,-2.08485 3.7694,-16.02317 3.6006,-34.77032 -0.104,-11.55246 -0.8918,-29.59764 -4.9116,-43.17321 -1.7635,-5.95582 -6.9365,-6.59161 -8.2478,-12.95984 -3.9701,-19.28126 -3.4683,-40.99446 -5.5585,-52.99807 -1.9216,-11.03572 -3.9704,20.27515 -5.8942,20.10138 l -28.2927,-70.19579 -44.8425,-19.97572 23.8574,-17.89509 36.631,-4.997 -29.7003,-26.402291 51.4659,13.142481 -43.7389,-45.072306 63.5132,-11.936091 -76.0972,-18.259569 99.6434,-22.7213204 C 1292.5404,2.5722351 1159.8018,3.2599568 1072.4971,0.89808789 l 10.8691,21.56303711 -41.0284,-20.3418885 -19.3259,18.0546515 50.0997,29.960598 -41.5316,14.047519 60.7874,25.695166 -60.2486,-3.210052 68.3946,42.143251 -25.29,16.72993 -26.7679,37.14051 -4.7863,-12.68017 -12.3712,22.85818 c -16.124,13.31989 -19.626,58.19469 -29.1474,88.02099 l 2.9965,39.98023 58.8424,-0.64983 z"
       id="Pineapple"
       sodipodi:nodetypes="sssccssssssssccccccccccccccccccccccccscs" />
    <g
       id="Pomegranate">
      <path
         style="fill:none;stroke:none"
         d="m 886.12299,709.90204 69.24924,53.811 38.43212,-3.31555 c 9.33055,-17.79333 15.21225,-41.17174 38.60095,-52.85285 l 13.3954,-41.76114 -21.1125,-53.53216 19.7268,-13.3417 -25.0874,-40.5874 c -9.3982,-15.20473 -58.8253,-26.31325 -58.6568,-25.83037 l -14.27505,-40.90932 c -2.15102,-6.16437 -12.66907,1.27711 -18.37182,2.27422 -11.77415,2.05866 0.2913,23.26548 -7.895,26.69442 l -20.94272,11.9256 c -15.32207,0.1486 -26.01811,4.92322 -36.86314,9.54886 -25.18149,13.83282 -37.7238,34.40653 -49.3455,55.47124 l -7.74674,39.91626 c 4.19103,20.84086 13.57771,41.68173 25.10224,62.52259 z"
         id="Pomegranate1"
         sodipodi:nodetypes="cccccccssssscccccc" />
      <path
         style="fill:none;stroke:none"
         d="m 1164.6041,497.71256 c -2.9176,2.35695 -7.4549,-93.12742 -8.2624,-86.52726 -0.4108,3.35754 48.2443,-51.10232 51.025,-53.36736 l 8.253,-54.37453 34.282,-8.14134 14.5194,60.46234 c 16.4728,29.13734 26.6227,30.27358 36.8103,31.57655 z"
         id="Pomegranate2"
         sodipodi:nodetypes="sssccccs" />
    </g>
    <path
       style="fill:none;stroke:none"
       d="m 1063.7496,697.53921 -39.0614,-85.28787 19.7268,-13.3417 398.092,-327.07919 29.0482,-13.20984 49.0998,127.83127 -0.7078,96.47636 c -18.2058,58.11277 -35.2358,117.89029 -68.4082,174.3401 l -63.6946,67.56381 -67.9397,-20.03735 c -24.5206,3.27735 -49.3364,7.65007 -66.9524,19.55813 -16.8204,12.4297 -15.325,8.39614 -45.5915,35.95268 l -49.7903,-48.95539 c -46.9599,-29.70166 -65.8554,-14.50036 -93.8209,-13.81101 z"
       id="Watermelon"
       sodipodi:nodetypes="cccccccccccccc" />
    <path
       style="fill:none;stroke:none"
       d="m 1063.7496,697.53921 -42.9666,31.86699 -29.08764,43.28316 -0.83553,56.79086 35.01147,40.96244 40.0896,-7.70372 26.7786,39.80352 51.0971,0.74877 c 51.9912,-18.96253 29.2496,-41.85837 37.1156,-63.14328 l 10.7659,-62.04455 -10.7171,-44.15763 -23.4305,-22.59555 c -46.9599,-29.70166 -65.8554,-14.50036 -93.8209,-13.81101 z"
       id="Plum"
       sodipodi:nodetypes="ccccccccccccc" />
    <g
       id="Sapodilla">
      <path
         style="fill:none;stroke:none"
         d="m 1418.3451,785.65054 -32.4533,-52.51992 c -21.833,-14.94073 -43.666,-17.38876 -65.499,-25.40695 -24.5206,3.27735 -49.8245,4.7212 -67.4405,16.62926 -16.8204,12.4297 -14.8369,8.88429 -45.1034,36.44083 l -15.1653,33.27997 -8.4078,50.79959 17.2777,47.04569 53.0323,26.67458 55,5.63985 c 33.0759,-1.19438 51.3475,-17.19303 71.9911,-30.8197 l 35.4954,-41.38596 z"
         id="Sapodilla2"
         sodipodi:nodetypes="ccccccccccccc" />
      <path
         style="fill:none;stroke:none"
         d="m 886.12299,709.90204 69.24924,53.811 23.41211,33.47475 -2.02765,64.90822 -39.10479,51.34249 c -21.72228,7.28382 -27.4721,14.56763 -65.16684,21.85145 l -60.8548,-7.27706 -55.84499,-36.42294 -9.54569,40.58135 -19.70544,20.34704 c -15.6347,11.16846 -25.9458,21.31572 -63.33378,26.94548 -12.85768,1.93606 -83.1619,-8.12745 -118.17584,-40.40976 l -36.34853,-33.51279 -8.86136,-31.13817 0.81436,-9.51692 7.21986,-7.86808 105.57661,-23.44612 122.49556,17.47995 -16.80923,-32.09264 -2.32304,-45.34644 18.60194,-32.78387 44.55201,-34.89344 50.39037,-5.9998 z"
         id="Sapodilla3"
         sodipodi:nodetypes="ccccccccccsscccccccccccc" />
      <path
         style="opacity:0;fill:none;stroke:none;stroke-opacity:1"
         d="m 990.64027,906.41859 -18.12146,26.92333 -2.93396,15.70527 8.62927,23.12644 22.09098,20.01991 39.1768,-0.69034 14.6698,-9.31961 23.299,-33.30899 6.3857,-22.09093 0.3452,-21.40059 -7.2486,-21.22801 -14.8424,-14.32459 -18.9844,-1.38068 -16.5682,4.83239 -18.9844,14.49718 z"
         id="Sapodilla1" />
    </g>
    <g
       id="Lychee">
      <path
         style="opacity:1;fill:none;fill-opacity:1;stroke:none;stroke-opacity:1"
         d="m 414.6794,803.24303 -10.25105,14.88843 -6.34589,16.1088 -1.22036,16.35286 5.61367,19.52581 7.32218,6.83404 11.47141,-1.46444 15.37658,4.63738 32.70573,23.1869 24.65134,-15.86472 5.07857,-24.95463 9.80986,-10.4359 -2.92887,-21.47839 -13.424,-20.01396 -19.28174,-11.71548 -22.21061,-5.61367 -18.79359,1.7085 z"
         id="Lychee1"
         sodipodi:nodetypes="cccccccccccccccccc" />
      <path
         style="opacity:1;fill:none;fill-opacity:1;stroke:none;stroke-opacity:1"
         d="m 385.38561,970.15402 -19.25932,-28.32469 1.20302,-28.02139 10.60849,-18.65063 16.47131,-14.26957 15.56143,-3.24443 12.16175,0.26142 14.68624,3.77445 24.24904,18.35451 8.75998,15.98614 1.96484,12.67654 -9.51883,30.99723 -32.89566,19.88323 z"
         id="Lychee2"
         sodipodi:nodetypes="cccccccccccccc" />
      <path
         style="opacity:1;fill:none;fill-opacity:1;stroke:none;stroke-opacity:1"
         d="m 83.47284,651.67393 29.28872,-12.69178 37.09904,-3.41702 22.94282,13.66807 19.03767,18.54952 5.3696,28.31243 -10.7392,35.6346 -19.03766,30.75315 -9.76291,7.81033 7.81032,25.8717 -3.41701,30.75315 -23.43097,28.31242 -38.07534,8.90866 -28.072046,-10.18653 -24.8523,-30.37504 -3.451708,-37.27845 13.116491,-29.68469 17.387869,-11.4607 -19.281738,-24.89541 2.196653,-28.80057 z"
         id="Lychee3" />
    </g>
    <path
       style="fill:none;stroke:none"
       d="m 601.18627,508.74052 -94.11666,24.83242 -77.87475,62.65332 c -5.54212,4.45886 -13.01888,20.8584 -22.22002,42.44958 -10.57048,24.80443 -18.13894,64.28867 -17.38338,67.35776 l 10.93446,44.41605 c 1.73396,7.04338 33.79649,39.89254 40.64702,40.39414 12.54104,0.91825 25.08207,2.37003 37.62311,8.41699 1.26446,0.60969 12.75705,8.78352 21.5652,17.01843 6.0059,5.61501 10.11074,11.97671 11.43556,13.17059 21.97059,19.7992 57.41202,5.56428 63.69999,3.42836 l 57.90337,-17.34771 48.24008,-22.76532 c 0,0 18.06083,-11.59212 25.82503,-18.91013 11.38547,-10.73118 29.92015,-36.16449 29.92015,-36.16449 l 23.81187,-19.35377 27.16157,-53.5676 9.09557,-58.42069 c 2.37765,-15.27163 11.08449,-24.49217 -0.96859,-41.57746 -1.94147,-2.75206 0.42394,-27.03458 -25.64616,-33.17824 l -75.68784,-17.83653 c -12.96245,-3.05472 -80.72106,-8.51023 -93.96558,-5.0157 z"
       id="Papaya"
       sodipodi:nodetypes="scsssssssssccscccsssss" />
    <path
       style="opacity:1;fill:none;fill-opacity:1;stroke:none;stroke-opacity:1"
       d="m 182.56633,791.77162 24.89541,-4.88145 24.40726,-2.44073 28.31243,7.32218 20.01395,16.59694 18.06138,-14.15621 11.71548,-9.76291 -6.34589,-22.94283 15.62065,17.57323 9.76291,-3.41701 1.46443,-9.76291 4.88146,11.22734 11.22734,-0.48814 5.3696,-19.52581 2.44072,19.03766 36.12275,15.62065 10.7392,24.40726 -1.72018,9.12457 -3.62429,9.66478 -1.03551,16.5682 3.10653,15.53269 -33.99932,37.27845 0.34517,12.9439 -12.42615,30.72021 -47.80616,36.07035 -21.91835,3.10654 -12.59873,-9.83737 -11.73581,-48.32392 -42.6286,5.86791 -12.25356,-12.77133 -39.52206,-62.82109 -1.38069,-27.78625 6.73083,-21.57317 z"
       id="Strawberry" />
  </g>
</svg>
